<?xml version="1.0" standalone="no"?>
<!DOCTYPE svg PUBLIC "-//W3C//DTD SVG 20010904//EN"
 "http://www.w3.org/TR/2001/REC-SVG-20010904/DTD/svg10.dtd">
<svg version="1.0" xmlns="http://www.w3.org/2000/svg"
 width="400.000000pt" height="400.000000pt" viewBox="0 0 400.000000 400.000000"
 preserveAspectRatio="xMidYMid meet">

<g transform="translate(0.000000,400.000000) scale(0.100000,-0.100000)"
fill="#004988" stroke="none">
<path d="M1809 3996 c-3 -4 -44 -11 -90 -16 -378 -45 -762 -208 -1064 -451
-273 -220 -480 -501 -621 -844 l-29 -70 -3 -611 -2 -611 44 -109 c53 -134 82
-192 154 -309 280 -455 724 -781 1254 -919 54 -15 105 -26 113 -26 13 0 15 35
14 258 l0 257 -200 165 c-111 91 -210 173 -222 183 -12 10 -117 98 -234 195
l-213 177 0 663 c0 571 2 663 14 660 17 -3 306 -259 444 -392 l92 -89 1 -536
0 -536 232 -193 c128 -106 244 -204 260 -217 l27 -24 0 -301 0 -300 86 0 86 0
-3 266 -3 265 73 72 c39 40 76 79 81 87 6 9 10 501 10 1255 l0 1240 265 -265
265 -265 0 -835 -1 -835 -82 -74 c-117 -106 -289 -265 -374 -345 l-73 -69 0
-249 0 -249 98 3 97 3 3 261 2 261 240 203 240 203 0 536 0 535 253 247 c138
135 258 244 264 242 10 -4 12 -153 10 -679 -2 -607 -4 -674 -18 -686 -85 -68
-474 -372 -617 -483 l-181 -140 0 -227 c-1 -259 -8 -243 86 -213 26 8 71 22
98 31 67 21 259 102 315 133 90 49 224 135 304 195 98 74 283 255 359 351 120
152 247 380 308 548 l29 82 0 591 0 592 -41 103 c-101 251 -236 462 -419 653
-337 350 -740 558 -1230 633 -103 16 -490 30 -501 19z m131 -1721 c0 -844 -3
-1535 -6 -1535 -3 0 -36 26 -74 58 -37 31 -160 131 -274 221 l-206 164 0 972
0 972 29 39 c16 21 68 86 115 144 48 58 157 194 244 302 86 109 160 198 165
198 4 0 7 -691 7 -1535z"/>
</g>
</svg>
